<?xml version="1.0" encoding="UTF-8"?>
<svg xmlns="http://www.w3.org/2000/svg" xmlns:xlink="http://www.w3.org/1999/xlink" width="531pt" height="186pt" viewBox="0 0 531 186" version="1.1">
<g id="surface1">
<path style=" stroke:none;fill-rule:evenodd;fill:rgb(0%,71.289063%,94.139099%);fill-opacity:1;" d="M 182.867188 92.089844 C 182.867188 41.667969 141.996094 0.796875 91.578125 0.796875 C 41.15625 0.796875 0.289063 41.667969 0.289063 92.089844 C 0.289063 140.597656 37.71875 180.320313 85.464844 183.378906 L 85.464844 112.714844 C 76.679688 110.039063 70.1875 102.019531 70.1875 92.089844 C 70.1875 80.628906 79.734375 71.078125 91.578125 71.078125 C 103.417969 71.078125 112.96875 80.628906 112.96875 92.089844 C 112.96875 102.019531 106.476563 110.039063 97.308594 112.714844 L 97.308594 183.378906 C 145.054688 180.320313 182.867188 140.597656 182.867188 92.089844 "/>
<path style=" stroke:none;fill-rule:evenodd;fill:rgb(15.281677%,11.767578%,47.459412%);fill-opacity:1;" d="M 312.21875 54.027344 C 317.753906 42.964844 323.285156 31.898438 328.816406 20.832031 C 297.398438 -8.546875 237.707031 -7.246094 218.246094 34.804688 C 213.0625 46.015625 213.242188 58.4375 218.1875 71.496094 C 220.578125 77.796875 224.875 85.65625 231.699219 91.289063 C 235.183594 94.167969 248.582031 100.800781 259.414063 105.710938 C 269.546875 110.304688 283.496094 113.601563 289.898438 122.660156 C 297.21875 133.007813 292.699219 145.785156 275.722656 148.113281 C 266.210938 149.417969 252.050781 145.460938 230.945313 128.433594 C 223.503906 138.164063 216.066406 147.894531 208.625 157.625 C 279.605469 219.527344 345.128906 165.328125 329.777344 117.15625 C 325.875 104.921875 317.851563 95.511719 307.910156 88.332031 C 292.535156 77.226563 276.484375 74.21875 265.769531 69.546875 C 245.691406 60.792969 248.523438 36.15625 276.367188 37.660156 C 293.988281 38.613281 299.648438 43.644531 312.21875 54.027344 "/>
<path style=" stroke:none;fill-rule:evenodd;fill:rgb(15.281677%,11.767578%,47.459412%);fill-opacity:1;" d="M 348.195313 0.722656 L 417.023438 0.722656 C 440.160156 0.722656 467.289063 20.828125 467.289063 44.832031 C 467.289063 50.378906 467.671875 54.535156 467.292969 60.972656 C 466.539063 73.710938 454.785156 88.007813 447.214844 88.007813 C 459 88.007813 470.777344 104.890625 473.667969 116.578125 C 480.691406 144.964844 465.777344 185.386719 417.023438 185.386719 L 348.195313 185.386719 Z M 385.109375 34.421875 L 412.15625 34.421875 C 422.308594 34.421875 430.613281 43.035156 430.613281 53.570313 L 430.613281 56.3125 C 430.613281 65.335938 423.496094 72.71875 414.800781 72.71875 L 403.640625 72.71875 L 403.640625 106.859375 L 416.660156 106.859375 C 428.425781 106.859375 438.054688 116.847656 438.054688 129.050781 L 438.054688 129.054688 C 438.054688 141.257813 428.425781 151.246094 416.660156 151.246094 L 385.109375 151.246094 C 385.109375 112.304688 385.109375 73.363281 385.109375 34.421875 "/>
<path style=" stroke:none;fill-rule:evenodd;fill:rgb(15.281677%,11.767578%,47.459412%);fill-opacity:1;" d="M 492.066406 0.722656 L 530.988281 0.722656 L 530.988281 185.386719 L 492.066406 185.386719 L 492.066406 0.722656 "/>
</g>
</svg>
